<svg width="30" height="30" viewBox="0 0 30 30" fill="none" xmlns="http://www.w3.org/2000/svg">
<path d="M8.01146 25.5306C7.57558 25.5306 7.18992 25.2483 7.05821 24.8328L3.41278 13.3328C3.2084 12.6881 3.68968 12.0306 4.36603 12.0306H25.6425C26.3163 12.0306 26.7973 12.6836 26.5975 13.3271L23.0272 24.8271C22.8973 25.2455 22.5103 25.5306 22.0722 25.5306H8.01146Z" fill="white"/>
<path d="M6.75 12.03L12.7885 5.44255C13.9775 4.14545 16.0225 4.14545 17.2115 5.44255L23.25 12.03M26.5975 13.3271L23.0272 24.8271C22.8973 25.2455 22.5103 25.5306 22.0722 25.5306H8.01146C7.57558 25.5306 7.18992 25.2483 7.05821 24.8328L3.41278 13.3328C3.2084 12.6881 3.68968 12.0306 4.36603 12.0306H25.6425C26.3163 12.0306 26.7973 12.6836 26.5975 13.3271Z" stroke="white" stroke-width="2" stroke-linecap="round" stroke-linejoin="round"/>
</svg>
