<?xml version="1.0" encoding="utf-8"?><svg xml:space="preserve" viewBox="0 0 100 100" y="0px" x="0px" xmlns:xlink="http://www.w3.org/1999/xlink" xmlns="http://www.w3.org/2000/svg" id="圖層_1" version="1.1" width="200px" height="200px" style="width:100%;height:100%;background-size:initial;background-repeat-y:initial;background-repeat-x:initial;background-position-y:initial;background-position-x:initial;background-origin:initial;background-image:initial;background-color:rgb(255, 255, 255);background-clip:initial;background-attachment:initial;animation-play-state:paused" ><g class="ldl-scale" style="transform-origin:50% 50%;transform:rotate(0deg) scale(0.8, 0.8);animation-play-state:paused" ><path d="M70.18,87.37H29.83c-5.35,0-9.97-3.76-11.05-9.01l-8.78-40.73h80l-8.78,40.73C80.14,83.61,75.53,87.37,70.18,87.37z" stroke-miterlimit="10" stroke-linejoin="round" stroke-linecap="round" stroke-width="3.5" stroke="#333333" fill="none" style="stroke:rgb(51, 51, 51);animation-play-state:paused" ></path>
<path d="M59.47,87.37H40.54c-5.54,0-10.32-3.76-11.44-9.01l-9.1-40.73h60l-9.1,40.73C69.79,83.61,65.01,87.37,59.47,87.37z" stroke-miterlimit="10" stroke-linejoin="round" stroke-linecap="round" stroke-width="3.5" stroke="#333333" fill="none" style="stroke:rgb(51, 51, 51);animation-play-state:paused" ></path>
<path d="M54.74,87.37h-9.47c-2.77,0-5.16-3.76-5.72-9.01l-4.55-40.73h30l-4.55,40.73C59.9,83.61,57.51,87.37,54.74,87.37z" stroke-miterlimit="10" stroke-linejoin="round" stroke-linecap="round" stroke-width="3.5" stroke="#333333" fill="none" style="stroke:rgb(51, 51, 51);animation-play-state:paused" ></path>
<line y2="87.37" x2="50.01" y1="37.64" x1="50.01" stroke-miterlimit="10" stroke-linejoin="round" stroke-linecap="round" stroke-width="3.5" stroke="#333333" fill="none" style="stroke:rgb(51, 51, 51);animation-play-state:paused" ></line>
<line y2="55.76" x2="84.53" y1="55.76" x1="15.47" stroke-miterlimit="10" stroke-linejoin="round" stroke-linecap="round" stroke-width="3.5" stroke="#333333" fill="none" style="stroke:rgb(51, 51, 51);animation-play-state:paused" ></line>
<line y2="71.85" x2="81.81" y1="71.85" x1="18.19" stroke-miterlimit="10" stroke-linejoin="round" stroke-linecap="round" stroke-width="3.5" stroke="#333333" fill="none" style="stroke:rgb(51, 51, 51);animation-play-state:paused" ></line>
<path d="M89.65,42.12h-79.3c-1.65,0-2.99-1.34-2.99-2.99v0c0-1.65,1.34-2.99,2.99-2.99h79.3c1.65,0,2.99,1.34,2.99,2.99v0 C92.65,40.78,91.31,42.12,89.65,42.12z" stroke-miterlimit="10" stroke-linejoin="round" stroke-linecap="round" stroke-width="3.5" stroke="#333333" fill="#FFFFFF" style="stroke:rgb(51, 51, 51);fill:rgb(255, 255, 255);animation-play-state:paused" ></path>
<path d="M80.45,36.14V22.52c0-5.46-4.43-9.89-9.89-9.89H29.44c-5.46,0-9.89,4.43-9.89,9.89v13.61" stroke-miterlimit="10" stroke-linejoin="round" stroke-linecap="round" stroke-width="3.5" stroke="#333333" fill="none" style="stroke:rgb(51, 51, 51);animation-play-state:paused" ></path>
<metadata xmlns:d="https://loading.io/stock/" style="animation-play-state:paused" ><d:name style="animation-play-state:paused" >bathroom</d:name>


<d:tags style="animation-play-state:paused" >bathroom,laundry basket,clean,wash,housework</d:tags>


<d:license style="animation-play-state:paused" >by</d:license>


<d:slug style="animation-play-state:paused" >4d276d</d:slug></metadata></g><!-- generated by https://loading.io/ --></svg>