<svg width="30" height="30" viewBox="0 0 30 30" fill="none" xmlns="http://www.w3.org/2000/svg">
<path d="M3.18039 13.14C3.18039 13.08 3.15039 13.02 3.15039 12.96" stroke="white" stroke-width="2.5" stroke-miterlimit="10" stroke-linecap="round" stroke-linejoin="round"/>
<path d="M3 11.01C3.3 2.39996 15 1.70996 15 9.74996C15 1.61996 27 2.39996 27 11.31C27 20.22 15 25.89 15 25.89C15 25.89 6.12 21.72 3.63 14.88" fill="white"/>
<path d="M3 11.01C3.3 2.39996 15 1.70996 15 9.74996C15 1.61996 27 2.39996 27 11.31C27 20.22 15 25.89 15 25.89C15 25.89 6.12 21.72 3.63 14.88" stroke="white" stroke-width="2.5" stroke-miterlimit="10" stroke-linecap="round" stroke-linejoin="round"/>
</svg>
