<svg width="100" height="40" viewBox="0 0 100 40" fill="none" xmlns="http://www.w3.org/2000/svg">
<g clip-path="url(#clip0_75_7)">
<path fill-rule="evenodd" clip-rule="evenodd" d="M99.986 40H0V0H100V40H99.986ZM2 20C2 29.833 22.116 38 50.007 38C77.898 38 98 29.833 98 20C98 10.167 77.884 2 50.007 2C22.131 2 2 10.167 2 20Z" fill="white"/>
<path d="M45.448 26.0062C45.763 26.4532 46.108 26.8732 46.508 27.2512H35.688C35.688 26.8312 35.272 25.9782 34.813 25.3062C33.8319 23.8574 32.8525 22.4074 31.875 20.9562V26.0062C31.875 26.4262 31.875 26.8312 32.09 27.2512H23.075C23.29 26.8312 23.29 26.4252 23.29 26.0062V14.0012C23.29 13.5812 23.29 13.1752 23.075 12.7562H32.09C31.875 13.1762 31.875 13.5812 31.875 14.0012V19.2472C31.875 19.2472 34.755 15.5822 35.415 14.7282C35.917 14.0852 36.533 13.1752 36.533 12.7562H45.935C45.29 13.1762 44.574 13.9312 43.986 14.6302L40.546 18.7302C40.546 18.7302 44.875 25.1812 45.448 26.0062ZM48.286 14.0012V26.0052C48.286 26.4252 48.286 26.8302 48.071 27.2502H65.471V23.2202C65.041 23.4302 64.625 23.4302 64.195 23.4302H56.871V21.5282H63.908V18.4782H56.871V16.5612H64.195C64.625 16.5612 65.041 16.5612 65.471 16.7572V12.7422H48.071C48.286 13.1752 48.286 13.5822 48.286 14.0012ZM89.578 26.0052C89.722 26.4662 89.965 26.8862 90.281 27.2502H80.85C80.893 26.8302 80.735 26.4242 80.563 26.0052C80.563 26.0052 80.42 25.6692 80.219 25.1792L80.133 24.9692H74.701L74.615 25.1932C74.615 25.1932 74.457 25.5992 74.314 26.0192C74.171 26.4392 74.013 26.8442 74.07 27.2642H66.632C66.9356 26.8972 67.1643 26.4742 67.305 26.0192L71.763 14.0152C71.92 13.5952 72.078 13.1892 72.021 12.7702H84.591C84.476 13.1902 84.705 13.5952 84.863 14.0152C85.235 14.9252 89.263 25.1932 89.578 26.0052ZM78.943 21.9052L77.625 18.5482C77.5078 18.2377 77.4119 17.9197 77.338 17.5962C77.2807 17.9206 77.1943 18.2392 77.08 18.5482C77.037 18.6882 76.478 20.1572 75.833 21.9052H78.943ZM18.803 12.7552H9C9.215 13.1752 9.215 13.5812 9.215 14.0012V26.0052C9.215 26.4252 9.215 26.8302 9 27.2502H18.804C18.589 26.8302 18.589 26.4242 18.589 26.0052V14.0012C18.589 13.5812 18.589 13.1752 18.804 12.7562L18.803 12.7552ZM86.568 13.9032C86.525 12.8822 87.342 12.0282 88.388 12.0002H88.518C89.578 11.9862 90.452 12.7982 90.467 13.8332V13.9032C90.495 14.9532 89.65 15.8332 88.561 15.8622C87.486 15.8902 86.583 15.0642 86.554 14.0012C86.568 13.9732 86.568 13.9312 86.568 13.9032ZM86.955 13.9032C86.955 14.7432 87.658 15.4282 88.518 15.4282C89.378 15.4282 90.08 14.7422 90.08 13.9032C90.08 13.0632 89.378 12.3782 88.518 12.3782C87.686 12.3502 86.984 12.9802 86.955 13.7912V13.9032ZM88.131 15.0362H87.787V12.7422H88.661C88.8557 12.7448 89.0415 12.8241 89.1782 12.9628C89.3148 13.1015 89.3913 13.2885 89.391 13.4832C89.391 13.7632 89.234 14.0152 88.976 14.1552L89.478 15.0362H89.091L88.632 14.2252H88.131V15.0362ZM88.131 13.9032H88.604C88.833 13.9172 89.034 13.7492 89.034 13.5252C89.034 13.3012 88.876 13.1052 88.647 13.1052H88.131V13.9032Z" fill="white"/>
</g>
<defs>
<clipPath id="clip0_75_7">
<rect width="100" height="40" fill="white"/>
</clipPath>
</defs>
</svg>
