<?xml version="1.0" encoding="utf-8"?><svg xml:space="preserve" viewBox="0 0 100 100" y="0" x="0" xmlns="http://www.w3.org/2000/svg" id="圖層_1" version="1.1" width="200px" height="200px" xmlns:xlink="http://www.w3.org/1999/xlink" style="width:100%;height:100%;background-size:initial;background-repeat-y:initial;background-repeat-x:initial;background-position-y:initial;background-position-x:initial;background-origin:initial;background-image:initial;background-color:rgb(255, 255, 255);background-clip:initial;background-attachment:initial;animation-play-state:paused" ><g class="ldl-scale" style="transform-origin:50% 50%;transform:rotate(0deg) scale(0.8, 0.8);animation-play-state:paused" ><path stroke-miterlimit="10" stroke-width="4" stroke="#333" fill="none" d="M82.991 27.402H65.048l-3.283-8.457a5.237 5.237 0 0 0-4.96-3.557h-13.61a5.237 5.237 0 0 0-4.96 3.557l-3.283 8.457H17.009A8.01 8.01 0 0 0 9 35.412v41.191a8.01 8.01 0 0 0 8.009 8.009H82.99a8.009 8.009 0 0 0 8.009-8.009V35.412a8.008 8.008 0 0 0-8.008-8.01z" style="stroke:rgb(51, 51, 51);animation-play-state:paused" ></path>
<circle stroke-miterlimit="10" stroke-width="4" stroke="#333" fill="none" r="18.307" cy="56.007" cx="50" style="stroke:rgb(51, 51, 51);animation-play-state:paused" ></circle>
<metadata xmlns:d="https://loading.io/stock/" style="animation-play-state:paused" ><d:name style="animation-play-state:paused" >camera</d:name>
<d:tags style="animation-play-state:paused" >compact,photography,film,lomo,film,photo,film,take,shot,camera,camera</d:tags>
<d:license style="animation-play-state:paused" >by</d:license>
<d:slug style="animation-play-state:paused" >ijgtox</d:slug></metadata></g><!-- generated by https://loading.io/ --></svg>