<svg width="30" height="30" viewBox="0 0 30 30" fill="none" xmlns="http://www.w3.org/2000/svg">
<path d="M24.81 26.3102C24.42 26.3102 24.03 26.1602 23.76 25.8602L18.45 20.5502C17.85 19.9502 17.85 19.0202 18.45 18.4202C19.05 17.8202 19.98 17.8202 20.58 18.4202L25.89 23.7302C26.49 24.3302 26.49 25.2602 25.89 25.8602C25.56 26.1602 25.2 26.3102 24.81 26.3102Z" fill="#111111"/>
<path d="M13.1391 22.5904C10.7091 22.5904 8.30914 21.6604 6.44914 19.8304C2.75914 16.1404 2.75914 10.1404 6.44914 6.48039C10.1391 2.79039 16.1391 2.79039 19.7991 6.48039C23.4891 10.1704 23.4891 16.1704 19.7991 19.8304C17.9691 21.6604 15.5691 22.5904 13.1391 22.5904ZM13.1391 6.09039C11.3391 6.09039 9.53914 6.78039 8.15914 8.16039C5.39914 10.9204 5.39914 15.3904 8.15914 18.1204C10.9191 20.8804 15.3891 20.8804 18.1191 18.1204C19.4391 16.8004 20.1891 15.0304 20.1891 13.1404C20.1891 11.2504 19.4691 9.48039 18.1191 8.16039C16.7391 6.78039 14.9391 6.09039 13.1391 6.09039Z" fill="#111111"/>
<path d="M13.0196 17.5501C13.6658 17.5501 14.1896 17.0666 14.1896 16.4701C14.1896 15.8737 13.6658 15.3901 13.0196 15.3901C12.3734 15.3901 11.8496 15.8737 11.8496 16.4701C11.8496 17.0666 12.3734 17.5501 13.0196 17.5501Z" fill="#111111"/>
<path d="M15.9905 10.9801C15.7505 9.75007 14.5205 8.79007 13.1405 8.76007C12.3305 8.73007 11.5505 9.00007 10.9505 9.51007C10.7405 9.69007 10.5605 9.90007 10.4105 10.1401C10.3805 10.1701 10.3805 10.2001 10.3505 10.2301C10.2905 10.3501 10.2305 10.5001 10.2305 10.6501C10.2305 11.1601 10.6205 11.5501 11.1305 11.5501C11.5805 11.5501 11.9405 11.2201 12.0005 10.8001C12.0305 10.7401 12.0905 10.6801 12.1505 10.6501C12.4505 10.4101 12.8405 10.2901 13.2305 10.3501C13.6505 10.4101 14.0405 10.7101 14.1905 11.0701C14.4305 11.6701 14.1005 12.3001 13.4705 12.5101C12.6605 12.8101 12.1205 13.5301 12.1205 14.3401V14.9101H13.8905V14.3401C13.8905 14.1901 13.9805 14.0401 14.1305 13.9801C15.4505 13.5301 16.2605 12.2701 15.9905 10.9801Z" fill="#111111"/>
</svg>
