<?xml version="1.0" encoding="utf-8"?><svg xml:space="preserve" viewBox="0 0 100 100" y="0" x="0" xmlns="http://www.w3.org/2000/svg" id="Layer_1" version="1.1" width="200px" height="200px" xmlns:xlink="http://www.w3.org/1999/xlink" style="width:100%;height:100%;background-size:initial;background-repeat-y:initial;background-repeat-x:initial;background-position-y:initial;background-position-x:initial;background-origin:initial;background-image:initial;background-color:rgb(255, 255, 255);background-clip:initial;background-attachment:initial;animation-play-state:paused" ><g class="ldl-scale" style="transform-origin:50% 50%;transform:rotate(0deg) scale(0.8, 0.8);animation-play-state:paused" ><g style="animation-play-state:paused" ><path d="M82.7 87.7c-1.3 0-2.6-.5-3.5-1.5L61.5 68.5c-2-2-2-5.1 0-7.1s5.1-2 7.1 0l17.7 17.7c2 2 2 5.1 0 7.1-1.1 1-2.3 1.5-3.6 1.5z" style="animation-play-state:paused" ></path></g>
<g style="animation-play-state:paused" ><circle r="27.5" fill="#e0e0e0" cy="43.8" cx="43.8" transform="rotate(-45.001 43.797 43.798)" style="fill:rgb(224, 224, 224);animation-play-state:paused" ></circle>
<path fill="#666766" d="M43.8 75.3c-8.1 0-16.1-3.1-22.3-9.2-12.3-12.3-12.3-32.3 0-44.5C33.8 9.3 53.8 9.3 66 21.6c12.3 12.3 12.3 32.3 0 44.5-6.1 6.1-14.1 9.2-22.2 9.2zm0-55c-6 0-12 2.3-16.6 6.9-9.2 9.2-9.2 24.1 0 33.2 9.2 9.2 24.1 9.2 33.2 0 4.4-4.4 6.9-10.3 6.9-16.6s-2.4-12.2-6.9-16.6c-4.6-4.6-10.6-6.9-16.6-6.9z" style="fill:rgb(102, 103, 102);animation-play-state:paused" ></path></g>
<g style="animation-play-state:paused" ><g style="animation-play-state:paused" ><ellipse ry="3.6" rx="3.9" cy="54.9" cx="43.4" style="animation-play-state:paused" ></ellipse></g>
<g style="animation-play-state:paused" ><path d="M53.3 36.6c-.8-4.1-4.9-7.3-9.5-7.4-2.7-.1-5.3.8-7.3 2.5-.7.6-1.3 1.3-1.8 2.1-.1.1-.1.2-.2.3-.2.4-.4.9-.4 1.4 0 1.7 1.3 3 3 3 1.5 0 2.7-1.1 2.9-2.5.1-.2.3-.4.5-.5 1-.8 2.3-1.2 3.6-1 1.4.2 2.7 1.2 3.2 2.4.8 2-.3 4.1-2.4 4.8-2.7 1-4.5 3.4-4.5 6.1v1.9h5.9v-1.9c0-.5.3-1 .8-1.2 4.4-1.5 7.1-5.7 6.2-10z" style="animation-play-state:paused" ></path></g></g>
<metadata xmlns:d="https://loading.io/stock/" style="animation-play-state:paused" ><d:name style="animation-play-state:paused" >search</d:name>
<d:tags style="animation-play-state:paused" >lookup,find,help,guide,documentation,search,web application</d:tags>
<d:license style="animation-play-state:paused" >by</d:license>
<d:slug style="animation-play-state:paused" >s7te3x</d:slug></metadata></g><!-- generated by https://loading.io/ --></svg>